<?xml version="1.0" encoding="UTF-8"?>
<!--Generator: Apple Native CoreSVG 341-->
<!DOCTYPE svg
PUBLIC "-//W3C//DTD SVG 1.1//EN"
       "http://www.w3.org/Graphics/SVG/1.1/DTD/svg11.dtd">
<svg version="1.1" xmlns="http://www.w3.org/2000/svg" xmlns:xlink="http://www.w3.org/1999/xlink" viewBox="0 0 203.25 395.68">
 <g>
  <path d="M101.625 1.65273C45.125 1.65273 0 46.7777 0 103.028C0 145.778 25.625 183.403 65.625 198.278L65.625 357.028C65.625 360.778 66.875 363.778 69.75 366.778L96.25 393.403C98.875 396.028 103.875 396.778 107 393.528L157.625 342.903C160.75 339.653 160.625 335.403 157.625 332.403L125.75 300.778L169.5 257.153C172.25 254.278 172.25 249.903 169 246.778L125.5 202.903C175.375 183.403 203.25 146.903 203.25 103.028C203.25 46.9027 157.875 1.65273 101.625 1.65273ZM101.625 94.4027C87 94.4027 75.375 82.6527 75.375 68.0277C75.375 53.5277 86.875 41.9027 101.625 41.9027C116.125 41.9027 128 53.5277 128 68.0277C128 82.6527 116.125 94.4027 101.625 94.4027Z" fill="white"/>
 </g>
</svg>
