<?xml version="1.0" encoding="utf-8"?>
<!-- Generator: Adobe Illustrator 16.0.4, SVG Export Plug-In . SVG Version: 6.00 Build 0)  -->
<!DOCTYPE svg PUBLIC "-//W3C//DTD SVG 1.1//EN" "http://www.w3.org/Graphics/SVG/1.1/DTD/svg11.dtd">
<svg version="1.1" id="Calque_1" xmlns="http://www.w3.org/2000/svg" xmlns:xlink="http://www.w3.org/1999/xlink" x="0px" y="0px"
	 width="2987px" height="2120px" viewBox="0 0 2987 2120" enable-background="new 0 0 2987 2120" xml:space="preserve">
<g>
	
		<circle fill="none" stroke="#010202" stroke-width="14.5935" stroke-linecap="round" stroke-miterlimit="10" cx="76.3" cy="2006.3" r="51.4"/>
	
		<circle fill="none" stroke="#010202" stroke-width="14.5935" stroke-linecap="round" stroke-miterlimit="10" cx="2914.1" cy="2014.3" r="40.7"/>
	<path fill="none" stroke="#010202" stroke-width="14.5935" stroke-linecap="round" stroke-miterlimit="10" d="M1923.1,213.3
		c-2.5,22.3-22.6,38.5-44.9,36c-22.4-2.5-38.5-22.6-36-44.9"/>
	<path fill="none" stroke="#010202" stroke-width="14.5935" stroke-linecap="round" stroke-miterlimit="10" d="M1921.9,153.8"/>
	<path fill="none" stroke="#010202" stroke-width="14.5935" stroke-linecap="round" stroke-miterlimit="10" d="M1911.1,223
		c-22.4-2.5-38.5-22.6-36-44.9c2.5-22.4,22.6-38.5,44.9-36c22.4,2.5,38.5,22.6,36,44.9"/>
	
		<circle fill="none" stroke="#010202" stroke-width="14.5935" stroke-linecap="round" stroke-miterlimit="10" cx="61.2" cy="1183.7" r="34.4"/>
	
		<circle fill="none" stroke="#010202" stroke-width="14.5935" stroke-linecap="round" stroke-miterlimit="10" cx="29.1" cy="1070.5" r="21.6"/>
	
		<circle fill="none" stroke="#010202" stroke-width="14.5935" stroke-linecap="round" stroke-miterlimit="10" cx="61.2" cy="970.2" r="14.2"/>
	
		<circle fill="none" stroke="#010202" stroke-width="14.5935" stroke-linecap="round" stroke-miterlimit="10" cx="1277.3" cy="915.7" r="31.1"/>
	<polygon fill="none" stroke="#010202" stroke-width="14.5935" stroke-linecap="round" stroke-miterlimit="10" points="
		2950.2,1181.5 2839.5,1137.3 2880.3,1251.4 	"/>
	<polygon fill="none" stroke="#010202" stroke-width="14.5935" stroke-linecap="round" stroke-miterlimit="10" points="
		1071.2,2036.5 960.5,1992.3 1001.3,2106.4 	"/>
	
		<line fill="none" stroke="#010202" stroke-width="14.5935" stroke-linecap="round" stroke-miterlimit="10" x1="11.8" y1="2076.1" x2="11.8" y2="2096.8"/>
	
		<line fill="none" stroke="#010202" stroke-width="14.5935" stroke-linecap="round" stroke-miterlimit="10" x1="54.6" y1="2094.2" x2="40" y2="2108.9"/>
	
		<line fill="none" stroke="#010202" stroke-width="14.5935" stroke-linecap="round" stroke-miterlimit="10" x1="72.1" y1="42.9" x2="51.4" y2="42.9"/>
	
		<line fill="none" stroke="#010202" stroke-width="14.5935" stroke-linecap="round" stroke-miterlimit="10" x1="54" y1="85.7" x2="39.3" y2="71.1"/>
	
		<line fill="none" stroke="#010202" stroke-width="14.5935" stroke-linecap="round" stroke-miterlimit="10" x1="10.9" y1="103.2" x2="10.9" y2="82.5"/>
	
		<line fill="none" stroke="#010202" stroke-width="14.5935" stroke-linecap="round" stroke-miterlimit="10" x1="2962.8" y1="52.4" x2="2977.5" y2="37.7"/>
	
		<line fill="none" stroke="#010202" stroke-width="14.5935" stroke-linecap="round" stroke-miterlimit="10" x1="2945.3" y1="9.3" x2="2966.1" y2="9.3"/>
	
		<line fill="none" stroke="#010202" stroke-width="14.5935" stroke-linecap="round" stroke-miterlimit="10" x1="2963.1" y1="2092" x2="2977.8" y2="2106.6"/>
	
		<line fill="none" stroke="#010202" stroke-width="14.5935" stroke-linecap="round" stroke-miterlimit="10" x1="2972.7" y1="616.3" x2="2972.7" y2="648.9"/>
	
		<line fill="none" stroke="#010202" stroke-width="14.5935" stroke-linecap="round" stroke-miterlimit="10" x1="39.3" y1="644.8" x2="16.3" y2="667.9"/>
	
		<line fill="none" stroke="#010202" stroke-width="14.5935" stroke-linecap="round" stroke-miterlimit="10" x1="66.8" y1="712.6" x2="34.2" y2="712.6"/>
	
		<line fill="none" stroke="#010202" stroke-width="14.5935" stroke-linecap="round" stroke-miterlimit="10" x1="38.3" y1="780" x2="15.3" y2="757"/>
	
		<line fill="none" stroke="#010202" stroke-width="14.5935" stroke-linecap="round" stroke-miterlimit="10" x1="2971.2" y1="807.5" x2="2971.2" y2="774.9"/>
	
		<line fill="none" stroke="#010202" stroke-width="14.5935" stroke-linecap="round" stroke-miterlimit="10" x1="2903.9" y1="779" x2="2926.9" y2="756"/>
	
		<line fill="none" stroke="#010202" stroke-width="14.5935" stroke-linecap="round" stroke-miterlimit="10" x1="2876.4" y1="711.2" x2="2908.9" y2="711.2"/>
	
		<line fill="none" stroke="#010202" stroke-width="14.5935" stroke-linecap="round" stroke-miterlimit="10" x1="2904.9" y1="643.8" x2="2927.9" y2="666.9"/>
	
		<line fill="none" stroke="#010202" stroke-width="14.5935" stroke-linecap="round" stroke-miterlimit="10" x1="1879.6" y1="37.7" x2="1849.7" y2="37.7"/>
	
		<line fill="none" stroke="#010202" stroke-width="14.5935" stroke-linecap="round" stroke-miterlimit="10" x1="1853.4" y1="99.5" x2="1832.3" y2="78.4"/>
	
		<line fill="none" stroke="#010202" stroke-width="14.5935" stroke-linecap="round" stroke-miterlimit="10" x1="1791.2" y1="124.8" x2="1791.2" y2="94.9"/>
	
		<line fill="none" stroke="#010202" stroke-width="14.5935" stroke-linecap="round" stroke-miterlimit="10" x1="1729.5" y1="98.6" x2="1750.6" y2="77.5"/>
	
		<line fill="none" stroke="#010202" stroke-width="14.5935" stroke-linecap="round" stroke-miterlimit="10" x1="1704.2" y1="36.4" x2="1734.1" y2="36.4"/>
	
		<line fill="none" stroke="#010202" stroke-width="14.5935" stroke-linecap="round" stroke-miterlimit="10" x1="1854.3" y1="2089.9" x2="1833.2" y2="2111"/>
	
		<line fill="none" stroke="#010202" stroke-width="14.5935" stroke-linecap="round" stroke-miterlimit="10" x1="1730.4" y1="2089" x2="1751.5" y2="2110.1"/>
	
		<line fill="none" stroke="#010202" stroke-width="14.5935" stroke-linecap="round" stroke-miterlimit="10" x1="1792.5" y1="2063.8" x2="1792.5" y2="2093.6"/>
	
		<line fill="none" stroke="#010202" stroke-width="14.5935" stroke-linecap="round" stroke-miterlimit="10" x1="1189.7" y1="381.2" x2="1189.7" y2="397.1"/>
	
		<line fill="none" stroke="#010202" stroke-width="14.5935" stroke-linecap="round" stroke-miterlimit="10" x1="1222.5" y1="395.1" x2="1211.3" y2="406.4"/>
	
		<line fill="none" stroke="#010202" stroke-width="14.5935" stroke-linecap="round" stroke-miterlimit="10" x1="1236" y1="428.2" x2="1220.1" y2="428.2"/>
	
		<line fill="none" stroke="#010202" stroke-width="14.5935" stroke-linecap="round" stroke-miterlimit="10" x1="1222.1" y1="461.1" x2="1210.8" y2="449.8"/>
	
		<line fill="none" stroke="#010202" stroke-width="14.5935" stroke-linecap="round" stroke-miterlimit="10" x1="1189" y1="474.5" x2="1189" y2="458.6"/>
	
		<line fill="none" stroke="#010202" stroke-width="14.5935" stroke-linecap="round" stroke-miterlimit="10" x1="1156.1" y1="460.6" x2="1167.3" y2="449.4"/>
	
		<line fill="none" stroke="#010202" stroke-width="14.5935" stroke-linecap="round" stroke-miterlimit="10" x1="1142.7" y1="427.5" x2="1158.6" y2="427.5"/>
	
		<line fill="none" stroke="#010202" stroke-width="14.5935" stroke-linecap="round" stroke-miterlimit="10" x1="1156.6" y1="394.6" x2="1167.8" y2="405.9"/>
	
		<line fill="none" stroke="#010202" stroke-width="14.5935" stroke-linecap="round" stroke-miterlimit="10" x1="2429.8" y1="1409.1" x2="2429.8" y2="1426.1"/>
	
		<line fill="none" stroke="#010202" stroke-width="14.5935" stroke-linecap="round" stroke-miterlimit="10" x1="2464.8" y1="1423.9" x2="2452.8" y2="1435.9"/>
	
		<line fill="none" stroke="#010202" stroke-width="14.5935" stroke-linecap="round" stroke-miterlimit="10" x1="2479.1" y1="1459.1" x2="2462.1" y2="1459.1"/>
	
		<line fill="none" stroke="#010202" stroke-width="14.5935" stroke-linecap="round" stroke-miterlimit="10" x1="2464.3" y1="1494.1" x2="2452.3" y2="1482.2"/>
	
		<line fill="none" stroke="#010202" stroke-width="14.5935" stroke-linecap="round" stroke-miterlimit="10" x1="2429.1" y1="1508.4" x2="2429.1" y2="1491.5"/>
	
		<line fill="none" stroke="#010202" stroke-width="14.5935" stroke-linecap="round" stroke-miterlimit="10" x1="2394.1" y1="1493.6" x2="2406" y2="1481.7"/>
	
		<line fill="none" stroke="#010202" stroke-width="14.5935" stroke-linecap="round" stroke-miterlimit="10" x1="2379.8" y1="1458.4" x2="2396.7" y2="1458.4"/>
	
		<line fill="none" stroke="#010202" stroke-width="14.5935" stroke-linecap="round" stroke-miterlimit="10" x1="2394.6" y1="1423.4" x2="2406.5" y2="1435.4"/>
	
		<line fill="none" stroke="#010202" stroke-width="14.5935" stroke-linecap="round" stroke-miterlimit="10" x1="1988.7" y1="546" x2="1988.7" y2="563"/>
	
		<line fill="none" stroke="#010202" stroke-width="14.5935" stroke-linecap="round" stroke-miterlimit="10" x1="2023.7" y1="560.8" x2="2011.7" y2="572.8"/>
	
		<line fill="none" stroke="#010202" stroke-width="14.5935" stroke-linecap="round" stroke-miterlimit="10" x1="2037.9" y1="596.1" x2="2021" y2="596.1"/>
	
		<line fill="none" stroke="#010202" stroke-width="14.5935" stroke-linecap="round" stroke-miterlimit="10" x1="2023.1" y1="631.1" x2="2011.2" y2="619.1"/>
	
		<line fill="none" stroke="#010202" stroke-width="14.5935" stroke-linecap="round" stroke-miterlimit="10" x1="1987.9" y1="645.3" x2="1987.9" y2="628.4"/>
	
		<line fill="none" stroke="#010202" stroke-width="14.5935" stroke-linecap="round" stroke-miterlimit="10" x1="1952.9" y1="630.5" x2="1964.9" y2="618.6"/>
	
		<line fill="none" stroke="#010202" stroke-width="14.5935" stroke-linecap="round" stroke-miterlimit="10" x1="1938.6" y1="595.3" x2="1955.6" y2="595.3"/>
	
		<line fill="none" stroke="#010202" stroke-width="14.5935" stroke-linecap="round" stroke-miterlimit="10" x1="1953.4" y1="560.3" x2="1965.4" y2="572.3"/>
	<path fill="none" stroke="#010202" stroke-width="14.5935" stroke-linecap="round" stroke-miterlimit="10" d="M2159.4,1947.5
		c109.2,0-1.8,102.7,102.7,102.7"/>
	<path fill="none" stroke="#010202" stroke-width="14.5935" stroke-linecap="round" stroke-miterlimit="10" d="M1817.2,992.4
		c0,66.8-62.9-1.1-62.9,62.9"/>
	<path fill="none" stroke="#010202" stroke-width="14.5935" stroke-linecap="round" stroke-miterlimit="10" d="M2112.4,1994.5
		c109.2,0-1.9,102.7,102.7,102.7"/>
	<path fill="none" stroke="#010202" stroke-width="14.5935" stroke-linecap="round" stroke-miterlimit="10" d="M2882,1105.4
		c0-91,85.6,1.5,85.6-85.6"/>
	<path fill="none" stroke="#010202" stroke-width="14.5935" stroke-linecap="round" stroke-miterlimit="10" d="M10.5,1560.1
		c0-109.2,102.7,1.9,102.7-102.7"/>
	<path fill="none" stroke="#010202" stroke-width="14.5935" stroke-linecap="round" stroke-miterlimit="10" d="M2901.1,1537.4
		c0-79.7,75,1.3,75-75"/>
	
		<line fill="none" stroke="#010202" stroke-width="14.5935" stroke-linecap="round" stroke-miterlimit="10" x1="61.9" y1="244.7" x2="128.6" y2="178"/>
	
		<line fill="none" stroke="#010202" stroke-width="14.5935" stroke-linecap="round" stroke-miterlimit="10" x1="61.9" y1="178" x2="128.6" y2="244.7"/>
	
		<line fill="none" stroke="#010202" stroke-width="14.5935" stroke-linecap="round" stroke-miterlimit="10" x1="1005.1" y1="1154.2" x2="1128.1" y2="1277.2"/>
	
		<line fill="none" stroke="#010202" stroke-width="14.5935" stroke-linecap="round" stroke-miterlimit="10" x1="1035.1" y1="1124.2" x2="1090.1" y2="1179.2"/>
	
		<line fill="none" stroke="#010202" stroke-width="14.5935" stroke-linecap="round" stroke-miterlimit="10" x1="2434.4" y1="1627.5" x2="2468.1" y2="1661.2"/>
	
		<line fill="none" stroke="#010202" stroke-width="14.5935" stroke-linecap="round" stroke-miterlimit="10" x1="2397.6" y1="1590.7" x2="2417.6" y2="1610.7"/>
	
		<line fill="none" stroke="#010202" stroke-width="14.5935" stroke-linecap="round" stroke-miterlimit="10" x1="468.1" y1="1455.4" x2="535.6" y2="1522.8"/>
	
		<line fill="none" stroke="#010202" stroke-width="14.5935" stroke-linecap="round" stroke-miterlimit="10" x1="431.4" y1="1418.7" x2="451.4" y2="1438.7"/>
	
		<line fill="none" stroke="#010202" stroke-width="14.5935" stroke-linecap="round" stroke-miterlimit="10" x1="1518.9" y1="72.3" x2="1451.5" y2="139.7"/>
	
		<line fill="none" stroke="#010202" stroke-width="14.5935" stroke-linecap="round" stroke-miterlimit="10" x1="1555.7" y1="35.5" x2="1535.7" y2="55.5"/>
	
		<line fill="none" stroke="#010202" stroke-width="14.5935" stroke-linecap="round" stroke-miterlimit="10" x1="504.1" y1="1441.2" x2="524.1" y2="1461.2"/>
	
		<line fill="none" stroke="#010202" stroke-width="14.5935" stroke-linecap="round" stroke-miterlimit="10" x1="2421.1" y1="1660.7" x2="2441.1" y2="1680.7"/>
	
		<line fill="none" stroke="#010202" stroke-width="14.5935" stroke-linecap="round" stroke-miterlimit="10" x1="184.6" y1="2072.7" x2="240.4" y2="2017"/>
	
		<line fill="none" stroke="#010202" stroke-width="14.5935" stroke-linecap="round" stroke-miterlimit="10" x1="260.6" y1="2049.7" x2="322.4" y2="1988"/>
	
		<line fill="none" stroke="#010202" stroke-width="14.5935" stroke-linecap="round" stroke-miterlimit="10" x1="320.3" y1="2102.5" x2="362.7" y2="2060.2"/>
	
		<line fill="none" stroke="#010202" stroke-width="14.5935" stroke-linecap="round" stroke-miterlimit="10" x1="250.6" y1="2112.7" x2="340.9" y2="2022.5"/>
	
		<line fill="none" stroke="#010202" stroke-width="14.5935" stroke-linecap="round" stroke-miterlimit="10" x1="1706.2" y1="1310.7" x2="1922.9" y2="1094"/>
	
		<line fill="none" stroke="#010202" stroke-width="14.5935" stroke-linecap="round" stroke-miterlimit="10" x1="2129.3" y1="1300.4" x2="1912.6" y2="1517.1"/>
	<path fill="none" stroke="#010202" stroke-width="14.5935" stroke-linecap="round" stroke-miterlimit="10" d="M2060.6,1421.9
		c7.3,7.3,7.3,19.2,0,26.5c-7.3,7.3-19.2,7.3-26.5,0c-7.3-7.3-7.3-19.2,0-26.5C2041.5,1414.6,2053.3,1414.6,2060.6,1421.9z"/>
	
		<line fill="none" stroke="#010202" stroke-width="14.5935" stroke-linecap="round" stroke-miterlimit="10" x1="1896.8" y1="1167.8" x2="1936.2" y2="1167.8"/>
	
		<line fill="none" stroke="#010202" stroke-width="14.5935" stroke-linecap="round" stroke-miterlimit="10" x1="1877" y1="1192.3" x2="1956" y2="1192.3"/>
	<path fill="none" stroke="#010202" stroke-width="14.5935" stroke-linecap="round" stroke-miterlimit="10" d="M2163.4,1334.7
		c10,10,10,26.1,0,36.1l-180.6,180.6c-10,10-26.1,10-36.1,0l-268.3-268.3c-10-10-10-26.1,0-36.1l180.6-180.6c10-10,26.1-10,36.1,0
		L2163.4,1334.7z"/>
	
		<line fill="none" stroke="#010202" stroke-width="14.5935" stroke-linecap="round" stroke-miterlimit="10" x1="1767.9" y1="1206.5" x2="1792.8" y2="1181.6"/>
	
		<line fill="none" stroke="#010202" stroke-width="14.5935" stroke-linecap="round" stroke-miterlimit="10" x1="1808.1" y1="1166.3" x2="1818.7" y2="1155.7"/>
	
		<line fill="none" stroke="#010202" stroke-width="14.5935" stroke-linecap="round" stroke-miterlimit="10" x1="759.7" y1="1992.6" x2="661.4" y2="1894.3"/>
	<path fill="none" stroke="#010202" stroke-width="14.5935" stroke-linecap="round" stroke-miterlimit="10" d="M747.6,2084.6
		c28.1,28.1,73.6,28.1,101.7,0l2.5-2.5c28.1-28.1,28.1-73.6,0-101.7l-51.3-51.3c-28.1-28.1-73.6-28.1-101.7,0l-2.5,2.5
		c-28.1,28.1-28.1,73.6,0,101.7L747.6,2084.6z"/>
	
		<line fill="none" stroke="#010202" stroke-width="14.5935" stroke-linecap="round" stroke-miterlimit="10" x1="811.8" y1="1940.6" x2="707.7" y2="2044.7"/>
	<path fill="none" stroke="#010202" stroke-width="14.5935" stroke-linecap="round" stroke-miterlimit="10" d="M661.5,1894.3
		c-22.3-22.3-22.3-58.4,0-80.8c22.3-22.3,58.5-22.3,80.8,0l125,125c22.3,22.3,58.5,22.3,80.8,0"/>
	
		<line fill="none" stroke="#010202" stroke-width="14.5935" stroke-linecap="round" stroke-miterlimit="10" x1="2582.6" y1="87.8" x2="2651.1" y2="88.7"/>
	
		<line fill="none" stroke="#010202" stroke-width="14.5935" stroke-linecap="round" stroke-miterlimit="10" x1="2547.6" y1="116.5" x2="2685.2" y2="118.4"/>
	
		<circle fill="none" stroke="#010202" stroke-width="14.5935" stroke-linecap="round" stroke-miterlimit="10" cx="2715.3" cy="544.6" r="18.7"/>
	<path fill="none" stroke="#010202" stroke-width="14.5935" stroke-linecap="round" stroke-miterlimit="10" d="M2943.6,325.3
		c15.8,16.3,15.5,42.4-0.8,58.2l-398.4,387.6c-16.3,15.8-42.4,15.5-58.2-0.8l-296.9-305.2c-15.9-16.3-15.5-42.4,0.8-58.2
		l398.4-387.6c16.3-15.8,42.4-15.5,58.2,0.8L2943.6,325.3z"/>
	
		<line fill="none" stroke="#010202" stroke-width="14.5935" stroke-linecap="round" stroke-miterlimit="10" x1="2455.5" y1="735.5" x2="2906.7" y2="284.2"/>
	
		<rect x="2731.4" y="560.9" transform="matrix(-0.7071 0.7071 -0.7071 -0.7071 5175.7412 -926.7303)" fill="none" stroke="#010202" stroke-width="14.5935" stroke-linecap="round" stroke-miterlimit="10" width="96.9" height="95.3"/>
	
		<line fill="none" stroke="#010202" stroke-width="14.5935" stroke-linecap="round" stroke-miterlimit="10" x1="2701.9" y1="753.9" x2="2924.5" y2="531.2"/>
	<path fill="none" stroke="#010202" stroke-width="14.5935" stroke-linecap="round" stroke-miterlimit="10" d="M2390.9,115.5
		c6.8-60.4-91.9-17-84.4-84.4"/>
	<path fill="none" stroke="#010202" stroke-width="14.5935" stroke-linecap="round" stroke-miterlimit="10" d="M2453.7,93
		c6.8-60.4-91.9-17-84.4-84.4"/>
	<path fill="none" stroke="#010202" stroke-width="14.5935" stroke-linecap="round" stroke-miterlimit="10" d="M156.9,955.6
		l176.8,176.8c17.3,17.3,45.4,17.3,62.7,0l132.3-132.3c17.3-17.3,17.3-45.4,0-62.7L351.9,760.7L156.9,955.6z"/>
	
		<line fill="none" stroke="#010202" stroke-width="14.5935" stroke-linecap="round" stroke-miterlimit="10" x1="427.8" y1="891.6" x2="348.6" y2="812.3"/>
	
		<line fill="none" stroke="#010202" stroke-width="14.5935" stroke-linecap="round" stroke-miterlimit="10" x1="467.7" y1="931.4" x2="446.7" y2="910.4"/>
	<path fill="none" stroke="#010202" stroke-width="14.5935" stroke-linecap="round" stroke-miterlimit="10" d="M557.6,1015.4
		c6.4-6.4,6.4-16.8,0-23.3c-6.4-6.4-16.8-6.4-23.3,0l-146,146c-6.4,6.4-6.4,16.8,0,23.3c6.4,6.4,16.8,6.4,23.3,0L557.6,1015.4z"/>
	<path fill="none" stroke="#010202" stroke-width="14.5935" stroke-linecap="round" stroke-miterlimit="10" d="M179.7,871.3
		c7.1-63-86.3-8.2-78.4-78.4"/>
	<path fill="none" stroke="#010202" stroke-width="14.5935" stroke-linecap="round" stroke-miterlimit="10" d="M204,804.9
		c7.1-63-86.3-8.2-78.4-78.4"/>
	<path fill="none" stroke="#010202" stroke-width="14.5935" stroke-linecap="round" stroke-miterlimit="10" d="M269.6,781.4
		c7.1-63-86.3-8.2-78.4-78.4"/>
	<path fill="none" stroke="#010202" stroke-width="14.5935" stroke-linecap="round" stroke-miterlimit="10" d="M185.1,983.8
		l-39.4,39.4c-18.9,18.9-18.9,49.5,0,68.3l74.6,74.6c18.9,18.9,49.5,18.9,68.3,0l39.4-39.4"/>
	<path fill="none" stroke="#010202" stroke-width="14.5935" stroke-linecap="round" stroke-miterlimit="10" d="M205.2,1003.9
		l-32.1,32.1c-11.7,11.7-11.7,30.7,0,42.5l60.3,60.3c11.7,11.7,30.7,11.7,42.5,0l32.1-32.1"/>
	<path fill="none" stroke="#010202" stroke-width="14.5935" stroke-linecap="round" stroke-miterlimit="10" d="M164.1,1590.8
		L59.4,1695.5c-44.7,44.7-44.7,117.1,0,161.8c44.7,44.7,117.1,44.7,161.8,0L417.4,1661c38.2-38.2,38.2-100.1,0-138.3
		c-38.2-38.2-100.1-38.2-138.3,0L83.9,1720c-31.1,31.1-31.1,81.6,0,112.8c31.1,31.1,81.6,31.1,112.8,0L301.4,1728"/>
	<polyline fill="none" stroke="#010202" stroke-width="14.5935" stroke-linecap="round" stroke-miterlimit="10" points="
		1127.8,1472.7 1161.7,1506.6 884.7,1783.6 665.7,1564.6 942.7,1287.6 976.6,1321.5 	"/>
	<path fill="none" stroke="#010202" stroke-width="14.5935" stroke-linecap="round" stroke-miterlimit="10" d="M1020.1,1289.9
		l-51.8-51.8c-12.5-12.5-32.2-13-44-1.2l-309.2,309.2c-11.8,11.8-11.3,31.6,1.1,44l242.9,242.9c12.5,12.5,32.2,13,44,1.1
		l309.2-309.2c11.8-11.8,11.3-31.6-1.1-44l-51.8-51.8"/>
	<polyline fill="none" stroke="#010202" stroke-width="14.5935" stroke-linecap="round" stroke-miterlimit="10" points="
		1131.4,1401.2 1159.4,1429.2 1104.6,1484 965.3,1344.7 1020.1,1289.9 1048.1,1317.9 	"/>
	
		<rect x="1030.8" y="1333.6" transform="matrix(0.7071 0.7071 -0.7071 0.7071 1280.5244 -372.3582)" fill="none" stroke="#010202" stroke-width="14.5935" stroke-linecap="round" stroke-miterlimit="10" width="117.9" height="51.9"/>
	
		<line fill="none" stroke="#010202" stroke-width="14.5935" stroke-linecap="round" stroke-miterlimit="10" x1="914.6" y1="1395.3" x2="973" y2="1453.7"/>
	
		<line fill="none" stroke="#010202" stroke-width="14.5935" stroke-linecap="round" stroke-miterlimit="10" x1="963" y1="1526.9" x2="1012.4" y2="1576.2"/>
	
		<line fill="none" stroke="#010202" stroke-width="14.5935" stroke-linecap="round" stroke-miterlimit="10" x1="873.1" y1="1436.9" x2="939.8" y2="1503.6"/>
	
		<line fill="none" stroke="#010202" stroke-width="14.5935" stroke-linecap="round" stroke-miterlimit="10" x1="894.7" y1="1534.5" x2="974.4" y2="1614.2"/>
	
		<line fill="none" stroke="#010202" stroke-width="14.5935" stroke-linecap="round" stroke-miterlimit="10" x1="835.1" y1="1474.9" x2="869.7" y2="1509.4"/>
	
		<line fill="none" stroke="#010202" stroke-width="14.5935" stroke-linecap="round" stroke-miterlimit="10" x1="906.7" y1="1622.5" x2="936.5" y2="1652.2"/>
	
		<line fill="none" stroke="#010202" stroke-width="14.5935" stroke-linecap="round" stroke-miterlimit="10" x1="797.1" y1="1512.9" x2="881.7" y2="1597.5"/>
	
		<line fill="none" stroke="#010202" stroke-width="14.5935" stroke-linecap="round" stroke-miterlimit="10" x1="759.1" y1="1550.8" x2="819.9" y2="1611.6"/>
	<path fill="none" stroke="#010202" stroke-width="14.5935" stroke-linecap="round" stroke-miterlimit="10" d="M1533.5,1848.2
		c7.5,7.5,18.9,8.4,25.4,1.9l266.3-266.3c6.5-6.5,5.6-17.9-1.9-25.4l-179.5-179.5c-7.5-7.5-18.9-8.4-25.4-1.9l-266.3,266.3
		c-6.5,6.5-5.6,17.9,1.9,25.4L1533.5,1848.2z"/>
	<path fill="none" stroke="#010202" stroke-width="14.5935" stroke-linecap="round" stroke-miterlimit="10" d="M1720.2,1538.1
		l29.7-29.7c6.5-6.5,5.6-17.9-1.9-25.4"/>
	
		<line fill="none" stroke="#010202" stroke-width="14.5935" stroke-linecap="round" stroke-miterlimit="10" x1="1535.2" y1="1723" x2="1698.2" y2="1560.1"/>
	<path fill="none" stroke="#010202" stroke-width="14.5935" stroke-linecap="round" stroke-miterlimit="10" d="M1458.1,1772.8
		c7.5,7.5,18.9,8.4,25.4,1.9l29.7-29.7"/>
	
		<line fill="none" stroke="#010202" stroke-width="14.5935" stroke-linecap="round" stroke-miterlimit="10" x1="1548.6" y1="1662.4" x2="1637.5" y2="1573.5"/>
	<path fill="none" stroke="#010202" stroke-width="14.5935" stroke-linecap="round" stroke-miterlimit="10" d="M1524.5,1470.8
		l-25-25c-7.5-7.5-19.8-7.5-27.3,0l-51.2,51.2c-7.5,7.5-7.5,19.8,0,27.3l25,25"/>
	<path fill="none" stroke="#010202" stroke-width="14.5935" stroke-linecap="round" stroke-miterlimit="10" d="M1532.3,1720.2
		c6.1,6.1,6.1,15.9,0,22l0,0c-6.1,6.1-15.9,6.1-22,0l-21-21c-6.1-6.1-6.1-15.9,0-22l0,0c6.1-6.1,15.9-6.1,22,0L1532.3,1720.2z"/>
	<path fill="none" stroke="#010202" stroke-width="14.5935" stroke-linecap="round" stroke-miterlimit="10" d="M1555.4,1743.3
		c6.1,6.1,6.1,15.9,0,22l0,0c-6.1,6.1-15.9,6.1-22,0l-44-44c-6.1-6.1-6.1-15.9,0-22l0,0c6.1-6.1,15.9-6.1,22,0L1555.4,1743.3z"/>
	<path fill="none" stroke="#010202" stroke-width="14.5935" stroke-linecap="round" stroke-miterlimit="10" d="M1695.3,1557.2
		c6.1,6.1,15.9,6.1,22,0l0,0c6.1-6.1,6.1-15.9,0-22l-21-21c-6.1-6.1-15.9-6.1-22,0l0,0c-6.1,6.1-6.1,15.9,0,22L1695.3,1557.2z"/>
	<path fill="none" stroke="#010202" stroke-width="14.5935" stroke-linecap="round" stroke-miterlimit="10" d="M1718.4,1580.3
		c6.1,6.1,15.9,6.1,22,0l0,0c6.1-6.1,6.1-15.9,0-22l-44-44c-6.1-6.1-15.9-6.1-22,0l0,0c-6.1,6.1-6.1,15.9,0,22L1718.4,1580.3z"/>
	<path fill="none" stroke="#010202" stroke-width="14.5935" stroke-linecap="round" stroke-miterlimit="10" d="M1744.1,265.3
		l-134.7-134.7c-5.1-5.1-11.2-7.7-18.4-7.7c-7.2,0-13.3,2.5-18.4,7.6l-134.7,134.7c-5.1,5.1-11.2,7.6-18.3,7.6
		c-7.2,0-13.3-2.5-18.4-7.6l-0.5-0.5c-5.1-5.1-11.2-7.6-18.3-7.6c-7.1,0-13.3,2.6-18.3,7.6l-61.2,61.2c-5.1,5.1-7.6,11.2-7.7,18.4
		c0,7.1,2.6,13.2,7.6,18.3l171.9,171.9c5.1,5.1,11.2,7.6,18.3,7.6c7.1,0,13.3-2.6,18.4-7.7L1744.1,302c5.1-5.1,7.6-11.2,7.6-18.3
		C1751.7,276.5,1749.2,270.4,1744.1,265.3z"/>
	<path fill="none" stroke="#010202" stroke-width="14.5935" stroke-linecap="round" stroke-miterlimit="10" d="M2956.1,901.3
		l-134.7-134.7c-5.1-5.1-11.2-7.7-18.4-7.7c-7.2,0-13.3,2.5-18.4,7.6l-134.7,134.7c-5.1,5.1-11.2,7.6-18.3,7.6
		c-7.2,0-13.3-2.5-18.4-7.6l-0.5-0.5c-5.1-5.1-11.2-7.6-18.3-7.6c-7.1,0-13.3,2.6-18.3,7.6l-61.2,61.2c-5.1,5.1-7.6,11.2-7.7,18.4
		c0,7.1,2.5,13.2,7.6,18.3l171.9,171.9c5.1,5.1,11.2,7.6,18.3,7.6c7.1,0,13.3-2.6,18.4-7.7L2956.1,938c5.1-5.1,7.6-11.2,7.6-18.3
		C2963.7,912.5,2961.2,906.4,2956.1,901.3z"/>
	<path fill="none" stroke="#010202" stroke-width="3.6484" d="M1504.6,1967.4c2.3-2.4,4.9-2.9,7.9-1.6c3,1.3,4.6,3.5,4.6,6.7l0,43.5
		l54.2-22.9c1.9-0.8,3.8-0.8,5.6,0c1.8,0.8,3.2,2.1,4,3.9l8.5,20.2c0.8,1.9,0.8,3.8,0,5.6c-0.8,1.8-2.1,3.2-3.9,4l-51.5,21.8
		l35.6,35.6c1.4,1.4,2.2,3.2,2.2,5.1c0,0.9-0.2,1.8-0.6,2.7c-1.3,3-3.5,4.6-6.7,4.6h-171.4c-3.2,0-5.4-1.5-6.7-4.6
		c-0.4-0.9-0.6-1.8-0.6-2.7c0-2.1,0.7-3.8,2.2-5.1L1504.6,1967.4z"/>
	<path fill="none" stroke="#010202" stroke-width="14.5935" stroke-linecap="round" stroke-miterlimit="10" d="M1504.6,1967.4
		c2.3-2.4,4.9-2.9,7.9-1.6c3,1.3,4.6,3.5,4.6,6.7l0,43.5l54.2-22.9c1.9-0.8,3.8-0.8,5.6,0c1.8,0.8,3.2,2.1,4,3.9l8.5,20.2
		c0.8,1.9,0.8,3.8,0,5.6c-0.8,1.8-2.1,3.2-3.9,4l-51.5,21.8l35.6,35.6c1.4,1.4,2.2,3.2,2.2,5.1c0,0.9-0.2,1.8-0.6,2.7
		c-1.3,3-3.5,4.6-6.7,4.6h-171.4c-3.2,0-5.4-1.5-6.7-4.6c-0.4-0.9-0.6-1.8-0.6-2.7c0-2.1,0.7-3.8,2.2-5.1L1504.6,1967.4z"/>
	<path fill="none" stroke="#010202" stroke-width="14.5935" stroke-linecap="round" stroke-miterlimit="10" d="M1056.5,783.7
		c6.8,6.8,10.8,15.9,12.1,27.2l11.2,107.9c1.1,10.5-0.5,21.6-4.7,33.4c-4.2,11.8-10,21.3-17.3,28.6l-178.5,178.5
		c-10.1,10.1-22.3,15.1-36.7,15.1c-14.4,0-26.7-5-36.7-15.1l-157.5-157.5c-10.1-10.1-15.1-22.3-15.1-36.7c0-14.4,5-26.7,15.1-36.7
		l52.5-52.5c10.1-10.1,22.3-15.1,36.7-15.1c14.4,0,26.7,5,36.7,15.1l5.2,5.2l89.2-89.2c10.1-10.1,22.3-15.1,36.7-15.1
		c14.4,0,26.7,5,36.7,15.1l26.2,26.2l31.5-31.5c5.9-5.9,12.7-10,20.3-12.2c7.6-2.2,15.1-2,22.6,0.6
		C1048.1,776.9,1052.6,779.8,1056.5,783.7z M809.3,1158.5l-9.7-131.4c-1-10.6,0.6-21.7,4.7-33.4c4.1-11.6,9.9-21.2,17.3-28.6
		l154-154"/>
	
		<line fill="none" stroke="#010202" stroke-width="12" stroke-linecap="round" stroke-miterlimit="10" x1="501.2" y1="107.8" x2="578.4" y2="30.6"/>
	
		<line fill="none" stroke="#010202" stroke-width="12" stroke-linecap="round" stroke-miterlimit="10" x1="665.1" y1="117.3" x2="587.9" y2="194.4"/>
	
		<line fill="none" stroke="#010202" stroke-width="12" stroke-linecap="round" stroke-miterlimit="10" x1="568.6" y1="62.3" x2="590.9" y2="62.3"/>
	
		<line fill="none" stroke="#010202" stroke-width="12" stroke-linecap="round" stroke-miterlimit="10" x1="555.9" y1="76.2" x2="600.7" y2="76.2"/>
	<path fill="none" stroke="#010202" stroke-width="12" stroke-linecap="round" stroke-miterlimit="10" d="M686.7,138.8
		c4.8,4.8,4.9,12.7,0,17.6L627,216c-4.8,4.8-12.7,4.8-17.6,0L488,94.6c-4.8-4.8-4.8-12.7,0-17.6l59.6-59.6c4.8-4.9,12.7-4.8,17.6,0
		L686.7,138.8z"/>
	<path fill="none" stroke="#010202" stroke-width="12" stroke-linecap="round" stroke-miterlimit="10" d="M648.4,164.4
		c3.7,3.7,3.7,9.6,0,13.3c-3.7,3.7-9.6,3.7-13.3,0c-3.7-3.7-3.7-9.6,0-13.3C638.7,160.7,644.7,160.7,648.4,164.4z"/>
	
		<line fill="none" stroke="#010202" stroke-width="12" stroke-linecap="round" stroke-miterlimit="10" x1="518.5" y1="70.4" x2="529.7" y2="59.2"/>
	
		<line fill="none" stroke="#010202" stroke-width="12" stroke-linecap="round" stroke-miterlimit="10" x1="538.4" y1="50.6" x2="541.5" y2="47.5"/>
	<path fill="none" stroke="#010202" stroke-width="14.5935" stroke-linecap="round" stroke-miterlimit="10" d="M2686.4,1457.2h172.3
		c0.2,22.5-4,44.4-12.5,65.6c-8.6,21.2-21.1,40.1-37.6,56.6c-22,22-47.7,36.8-77.1,44.6s-58.8,7.7-88.2,0
		c-29.4-7.7-55.1-22.6-77.1-44.6c-22-22-36.8-47.7-44.6-77.1c-7.7-29.4-7.7-58.8,0-88.2c7.7-29.4,22.6-55.1,44.6-77.1L2686.4,1457.2
		z M2819.1,1283.1l-121.2,121.2l-121.2-121.2c22-22,47.7-36.8,77.1-44.6c29.4-7.7,58.8-7.7,88.2,0
		C2771.4,1246.2,2797.1,1261.1,2819.1,1283.1z"/>
	<path fill="none" stroke="#010202" stroke-width="14.5935" stroke-linecap="round" stroke-miterlimit="10" d="M2730.2,1423.6
		l122-122c16.5,16.5,29.1,35.4,37.6,56.6c8.6,21.2,12.8,43,12.6,65.6L2730.2,1423.6z"/>
	<path fill="none" stroke="#010202" stroke-width="14.5935" stroke-linecap="round" stroke-miterlimit="10" d="M1596.4,683.9
		l-59.4-59.4l181-181c2.1-2.1,4.4-3.1,7.1-3.1s5.1,1,7.1,3.1l72.1,72.1L1947.8,372l-37.4-37.4c-3.3-3.3-4.1-7-2.3-11
		c1.8-4,4.8-6,9.1-6h134.6c2.9,0,5.3,0.9,7.1,2.8c1.9,1.9,2.8,4.2,2.8,7.1V462c0,4.3-2,7.4-6,9.1c-4,1.8-7.7,1-11-2.3l-37.4-37.4
		l-195.8,195.8c-2.1,2.1-4.4,3.1-7.1,3.1c-2.7,0-5.1-1-7.1-3.1l-72.1-72.1L1596.4,683.9"/>
	<path fill="none" stroke="#010202" stroke-width="14.5935" stroke-linecap="round" stroke-miterlimit="10" d="M390.5,263.9
		l-29.8,29.8l-90.8-90.8c-1-1-1.6-2.2-1.6-3.6c0-1.3,0.5-2.5,1.6-3.6l36.2-36.2l-72-72l-18.8,18.8c-1.7,1.7-3.5,2-5.5,1.2
		c-2-0.9-3-2.4-3-4.6V35.4c0-1.4,0.5-2.6,1.4-3.6c0.9-0.9,2.1-1.4,3.6-1.4h67.5c2.2,0,3.7,1,4.6,3c0.9,2,0.5,3.9-1.2,5.5l-18.8,18.8
		L362,156c1,1,1.6,2.2,1.6,3.6c0,1.3-0.5,2.5-1.5,3.6l-36.2,36.2L390.5,263.9"/>
	<path fill="none" stroke="#010202" stroke-width="14.5935" stroke-linecap="round" stroke-miterlimit="10" d="M1803.7,2001.3
		l-23.2,24.3l-70.8-73.9c-0.8-0.8-1.2-1.8-1.2-2.9c0-1.1,0.4-2.1,1.2-2.9l28.2-29.4l-56.2-58.6l-14.6,15.3c-1.3,1.4-2.7,1.7-4.3,0.9
		c-1.6-0.7-2.4-2-2.4-3.7v-54.9c0-1.2,0.4-2.1,1.1-2.9c0.7-0.8,1.7-1.1,2.8-1.1h52.6c1.7,0,2.9,0.8,3.6,2.5c0.7,1.6,0.4,3.1-0.9,4.5
		l-14.6,15.3l76.6,80c0.8,0.8,1.2,1.8,1.2,2.9c0,1.1-0.4,2.1-1.2,2.9l-28.2,29.4L1803.7,2001.3"/>
	<path fill="none" stroke="#010202" stroke-width="14.5935" stroke-linecap="round" stroke-miterlimit="10" d="M1392.6,977
		c56,56,297.8,95.1,297.8,95.1s-39.1-241.8-95.1-297.8c-56-56-146.7-56-202.7,0C1336.6,830.3,1336.6,921,1392.6,977z"/>
	<path fill="none" stroke="#010202" stroke-width="14.5935" stroke-linecap="round" stroke-miterlimit="10" d="M1427.9,941.6
		c36.4,36.4,95.5,36.4,132,0c36.4-36.4,36.4-95.5,0-132c-36.4-36.4-95.5-36.4-132,0C1391.5,846.1,1391.5,905.2,1427.9,941.6z"/>
	<path fill="none" stroke="#010202" stroke-width="14.5935" stroke-linecap="round" stroke-miterlimit="10" d="M1523.7,831.6
		c2.7,1.8,5.3,4,7.7,6.4"/>
	<path fill="none" stroke="#010202" stroke-width="14.5935" stroke-linecap="round" stroke-miterlimit="10" d="M1456.4,838
		c10.9-10.9,25.3-16,39.5-15.5"/>
	<path fill="none" stroke="#010202" stroke-width="11.8665" stroke-linecap="round" stroke-miterlimit="10" d="M2832,155.4
		c26.1,26.1,138.9,44.3,138.9,44.3S2952.6,87,2926.5,60.9c-26.1-26.1-68.4-26.1-94.5,0C2805.9,87,2805.9,129.3,2832,155.4z"/>
	<path fill="none" stroke="#010202" stroke-width="11.8665" stroke-linecap="round" stroke-miterlimit="10" d="M2848.5,138.9
		c17,17,44.5,17,61.5,0c17-17,17-44.5,0-61.5c-17-17-44.5-17-61.5,0C2831.5,94.4,2831.5,121.9,2848.5,138.9z"/>
	<path fill="none" stroke="#010202" stroke-width="11.8665" stroke-linecap="round" stroke-miterlimit="10" d="M2893.1,87.6
		c1.3,0.9,2.5,1.9,3.6,3"/>
	<path fill="none" stroke="#010202" stroke-width="11.8665" stroke-linecap="round" stroke-miterlimit="10" d="M2861.8,90.6
		c5.1-5.1,11.8-7.5,18.4-7.2"/>
	
		<path fill="none" stroke="#010202" stroke-width="14.5935" stroke-linecap="round" stroke-linejoin="round" stroke-miterlimit="10" d="
		M1348.6,37.7c2.1,3.4,2.1,6.7,0.1,10l-119.1,190.4c-1.5,2.4-3.8,3.8-6.8,4.2c-1.6,0.2-3.1,0-4.6-0.6c-1-0.4-2-1.1-2.9-2L1157,182
		l-57.8,27.1c-2.4,1.2-4.9,1.3-7.4,0.2c-1.2-0.5-2.2-1.1-2.9-1.8c-1.4-1.3-2.3-2.9-2.7-4.8c-0.3-1.9-0.2-3.7,0.6-5.5l25-60.2
		l-52.2-51.8c-2.8-2.6-3.5-5.8-2.3-9.5c1.2-3.6,3.7-5.6,7.5-6.1l274.8-35.7C1343.6,33.1,1346.6,34.5,1348.6,37.7z"/>
	
		<line fill="none" stroke="#010202" stroke-width="14.5935" stroke-linecap="round" stroke-linejoin="round" stroke-miterlimit="10" x1="1348.6" y1="37.7" x2="1157" y2="182"/>
	
		<line fill="none" stroke="#010202" stroke-width="14.5935" stroke-linecap="round" stroke-linejoin="round" stroke-miterlimit="10" x1="1111.8" y1="136.9" x2="1348.6" y2="37.7"/>
	
		<path fill="none" stroke="#010202" stroke-width="14.5935" stroke-linecap="round" stroke-linejoin="round" stroke-miterlimit="10" d="
		M557.5,1660c5,2.1,7.8,5.8,8.2,11.2l20.6,310.5c0.2,3.9-1.1,7.3-4.2,10.2c-1.6,1.5-3.5,2.5-5.7,3c-1.4,0.3-3.1,0.4-4.9,0.1
		l-112.3-17.6l-43,77.3c-1.7,3.3-4.4,5.4-8.2,6.2c-1.8,0.4-3.4,0.5-4.7,0.3c-2.7-0.3-5-1.4-6.9-3.2c-1.9-1.8-3.2-4-3.8-6.6
		l-20.7-87.9l-100.7-15.9c-5.2-0.7-8.7-3.7-10.3-8.9c-1.6-5-0.4-9.3,3.5-12.9l279.7-263C548.1,1658.9,552.5,1658,557.5,1660z"/>
	
		<line fill="none" stroke="#010202" stroke-width="14.5935" stroke-linecap="round" stroke-linejoin="round" stroke-miterlimit="10" x1="557.5" y1="1660" x2="459.2" y2="1977.3"/>
	
		<line fill="none" stroke="#010202" stroke-width="14.5935" stroke-linecap="round" stroke-linejoin="round" stroke-miterlimit="10" x1="371.9" y1="1963.4" x2="557.5" y2="1660"/>
	
		<path fill="none" stroke="#010202" stroke-width="14.5935" stroke-linecap="round" stroke-linejoin="round" stroke-miterlimit="10" d="
		M2939,1585.3c3.7,2,5.5,5,5.4,9.2l-6.9,238.8c-0.1,3-1.4,5.5-3.9,7.5c-1.3,1-2.8,1.6-4.5,1.9c-1.1,0.2-2.4,0.1-3.8-0.3l-84.6-21.7
		l-38.5,55.9c-1.5,2.4-3.8,3.8-6.7,4.2c-1.4,0.2-2.6,0.1-3.6-0.1c-2-0.5-3.7-1.4-5.1-2.9c-1.3-1.5-2.1-3.3-2.4-5.3l-9.4-68.7
		l-75.8-19.5c-3.9-0.9-6.3-3.4-7.2-7.5c-0.9-3.9,0.3-7.1,3.6-9.6l232.9-180.6C2931.9,1583.8,2935.3,1583.4,2939,1585.3z"/>
	
		<line fill="none" stroke="#010202" stroke-width="14.5935" stroke-linecap="round" stroke-linejoin="round" stroke-miterlimit="10" x1="2939" y1="1585.3" x2="2840.7" y2="1820.7"/>
	
		<line fill="none" stroke="#010202" stroke-width="14.5935" stroke-linecap="round" stroke-linejoin="round" stroke-miterlimit="10" x1="2775" y1="1803.7" x2="2939" y2="1585.3"/>
	<path fill="none" stroke="#010202" stroke-width="14.5935" stroke-linecap="round" stroke-miterlimit="10" d="M1346.6,730.5
		c-1.8,0-3.7-0.6-5.7-1.9c-22.4-17.3-43.2-30.1-62.4-38.2c-19.1-8.2-41.2-12.2-66.3-12.2c-14,0-28.1,1.8-42.2,5.5
		c-14.1,3.6-26.4,8-36.9,13.1c-10.5,5.1-19.8,10.2-28.1,15.3c-8.3,5.1-14.8,9.5-19.6,13.2c-4.8,3.6-7.3,5.4-7.7,5.4
		c-2.8,0-10.4-6.2-22.8-18.6c-12.3-12.4-18.5-20-18.5-23c0-1.9,0.8-3.8,2.5-5.4c21.8-21.8,48.1-38.7,79.1-50.7
		c31-12.1,62.4-18.1,94-18.1c31.7,0,63,6,94,18.1c31,12,57.4,28.9,79.2,50.7c1.6,1.6,2.5,3.5,2.5,5.4c0,3-6.2,10.7-18.5,23
		C1356.9,724.3,1349.4,730.5,1346.6,730.5z M1279,797.8c-0.3,0-3.6-2.1-9.9-6.2c-6.3-4.1-14.6-8.2-25.1-12.4
		c-10.5-4.1-21.1-6.2-31.8-6.2c-10.8,0-21.3,2.1-31.8,6.2c-10.5,4.2-18.8,8.3-25,12.4c-6.2,4.1-9.5,6.2-10,6.2
		c-3,0-10.7-6.2-23.1-18.6c-12.4-12.4-18.7-20-18.7-23c0-2.1,0.8-4,2.5-5.7c12.9-12.7,29.1-22.7,48.5-29.9
		c19.5-7.2,38.7-10.9,57.7-10.9c19,0,38.2,3.7,57.6,10.9c19.5,7.2,35.7,17.2,48.5,29.9c1.7,1.7,2.5,3.5,2.5,5.7
		c0,3-6.2,10.6-18.7,23C1289.7,791.6,1282,797.8,1279,797.8z"/>
	<path fill="none" stroke="#010202" stroke-width="14.5935" stroke-linecap="round" stroke-miterlimit="10" d="M1235.2,846.6
		c-12,12.1-19.7,18.2-23,18.2c-3.3,0-11-6.1-23-18.2c-12.1-12.1-18.1-19.9-18.1-23.2c0-5.3,5.1-9.7,15.5-13.4
		c10.3-3.6,18.8-5.4,25.6-5.4c6.8,0,15.3,1.8,25.6,5.4c10.3,3.6,15.5,8.1,15.5,13.4C1253.3,826.8,1247.3,834.5,1235.2,846.6z"/>
	<path fill="none" stroke="#010202" stroke-width="14.5935" stroke-linecap="round" stroke-miterlimit="10" d="M1413.6,663.4
		c-1.8,0-3.6-0.7-5.4-2.2c-29.6-25.9-60.2-45.4-91.9-58.5c-31.7-13.2-66.4-19.7-104-19.7c-37.6,0-72.3,6.5-104,19.7
		c-31.8,13.1-62.4,32.6-91.9,58.5c-1.8,1.5-3.6,2.2-5.5,2.2c-2.8,0-10.4-6.2-22.9-18.5c-12.5-12.4-18.7-20.1-18.7-23
		c0-2.1,0.8-4,2.5-5.7c30.8-30.7,67.5-54.4,110.1-71.2c42.5-16.8,86-25.2,130.4-25.2c44.4,0,87.8,8.4,130.4,25.2
		c42.6,16.8,79.3,40.6,110.1,71.2c1.6,1.7,2.5,3.6,2.5,5.7c0,3-6.2,10.6-18.7,23C1424,657.2,1416.4,663.4,1413.6,663.4z"/>
	<path fill="none" stroke="#010202" stroke-width="14.5935" stroke-linecap="round" stroke-miterlimit="10" d="M948.9,389.5
		l29.6,29.6c3.3,3.3,3.3,6.6,0,9.9L712.2,695.4c-3.3,3.3-6.6,3.3-9.9,0l-29.6-29.6c-3.3-3.3-3.3-6.6,0-9.9L939,389.5
		C942.3,386.2,945.7,386.3,948.9,389.5z"/>
	<path fill="none" stroke="#010202" stroke-width="14.5935" stroke-linecap="round" stroke-miterlimit="10" d="M475.3,547.4
		l29.6,29.6c3.3,3.3,3.3,6.6,0,9.9l-29.6,29.6c-3.3,3.3-6.6,3.3-9.9,0l-29.6-29.6c-3.3-3.3-3.3-6.6,0-9.9l29.6-29.6
		C468.7,544.1,472,544.1,475.3,547.4z M593.7,586.9l29.6,29.6c3.3,3.3,3.3,6.6,0,9.9l-69,69.1c-3.3,3.3-6.6,3.3-9.9,0l-29.6-29.6
		c-3.3-3.3-3.3-6.6,0-9.9l69.1-69C587.1,583.6,590.4,583.6,593.7,586.9z M633.2,705.3l29.6,29.6c3.3,3.3,3.3,6.6,0,9.9l-29.6,29.6
		c-3.3,3.3-6.6,3.3-9.9,0l-29.6-29.6c-3.3-3.3-3.3-6.6,0-9.9l29.6-29.6C626.6,702,629.9,702,633.2,705.3z M554.2,468.5l29.6,29.6
		c3.3,3.3,3.3,6.6,0,9.9l-29.6,29.6c-3.3,3.3-6.6,3.3-9.9,0l-29.6-29.6c-3.3-3.3-3.3-6.6,0-9.9l29.6-29.6
		C547.7,465.2,551,465.2,554.2,468.5z M672.7,507.9l29.6,29.6c3.3,3.3,3.3,6.6,0,9.9L672.7,577c-3.3,3.3-6.6,3.3-9.9,0l-29.6-29.6
		c-3.3-3.3-3.3-6.6,0-9.9l29.6-29.6C666.1,504.6,669.3,504.6,672.7,507.9z M633.2,389.5l29.6,29.6c3.3,3.3,3.3,6.6,0,9.9l-29.6,29.6
		c-3.3,3.3-6.6,3.3-9.9,0L593.7,429c-3.3-3.3-3.3-6.6,0-9.9l29.6-29.6C626.6,386.2,629.9,386.3,633.2,389.5z M751.6,429l29.6,29.6
		c3.3,3.3,3.3,6.6,0,9.9l-29.6,29.6c-3.3,3.3-6.5,3.3-9.9,0l-29.6-29.6c-3.3-3.3-3.3-6.6,0-9.9l29.6-29.6
		C745,425.7,748.3,425.7,751.6,429z M712.1,310.6l29.6,29.6c3.3,3.3,3.3,6.6,0,9.9l-29.6,29.6c-3.3,3.3-6.6,3.3-9.9,0l-29.6-29.6
		c-3.3-3.3-3.3-6.6,0-9.9l29.6-29.6C705.5,307.3,708.8,307.3,712.1,310.6z M830.5,350.1l29.6,29.6c3.3,3.3,3.3,6.6,0,9.9l-29.6,29.6
		c-3.3,3.3-6.5,3.3-9.9,0l-29.6-29.6c-3.3-3.3-3.3-6.6,0-9.9l29.6-29.6C823.9,346.8,827.2,346.8,830.5,350.1z M791.1,231.7
		l29.6,29.6c3.3,3.3,3.3,6.6,0,9.9l-29.6,29.6c-3.3,3.3-6.6,3.3-9.9,0l-29.6-29.6c-3.3-3.3-3.3-6.6,0-9.9l29.6-29.6
		C784.4,228.4,787.8,228.4,791.1,231.7z M1027.9,310.6l29.6,29.6c3.3,3.3,3.3,6.6,0,9.9l-29.6,29.6c-3.3,3.3-6.6,3.3-9.9,0
		l-29.6-29.6c-3.3-3.3-3.3-6.6,0-9.9l29.6-29.6C1021.3,307.3,1024.6,307.3,1027.9,310.6z"/>
	<path fill="none" stroke="#010202" stroke-width="14.5935" stroke-linecap="round" stroke-miterlimit="10" d="M377.6,405.5
		c22.6,22.6,59.2,22.6,81.9,0c22.6-22.6,22.6-59.2,0-81.8l-7.2-7.2c-22.6-22.6-22.6-59.2,0-81.8c22.6-22.6,59.2-22.6,81.8,0
		l82.1,82.1"/>
	<path fill="none" stroke="#010202" stroke-width="14.5935" stroke-linecap="round" stroke-miterlimit="10" d="M1124.3,322.4
		c11,11,11,28.7,0,39.7L650.9,835.5c-11,11-28.7,11-39.7,0L374.6,598.9c-11-11-11-28.7,0-39.7L848,85.9c11-11,28.7-11,39.7,0
		L1124.3,322.4z"/>
	<path fill="none" stroke="#010202" stroke-width="14.5935" stroke-linecap="round" stroke-miterlimit="10" d="M870,152.7
		l108.5,108.5c3.3,3.3,3.3,6.6,0,9.9l-69.1,69.1c-3.3,3.3-6.5,3.3-9.9,0L870,310.6c-3.3-3.3-3.3-6.6,0-9.9l34.6-34.6l-74-74
		c-3.3-3.3-3.3-6.6,0-9.9l29.6-29.6C863.4,149.4,866.7,149.4,870,152.7z"/>
	<path fill="none" stroke="#010202" stroke-width="14.5935" stroke-linecap="round" stroke-miterlimit="10" d="M2560.5,1855.9
		l15.3,15.3c1.7,1.7,1.7,3.4,0,5.1l-137.5,137.5c-1.7,1.7-3.4,1.7-5.1,0l-15.3-15.3c-1.7-1.7-1.7-3.4,0-5.1l137.5-137.5
		C2557,1854.3,2558.8,1854.3,2560.5,1855.9z"/>
	<path fill="none" stroke="#010202" stroke-width="14.5935" stroke-linecap="round" stroke-miterlimit="10" d="M2315.9,1937.5
		l15.3,15.3c1.7,1.7,1.7,3.4,0,5.1l-15.3,15.3c-1.7,1.7-3.4,1.7-5.1,0l-15.3-15.3c-1.7-1.7-1.7-3.4,0-5.1l15.3-15.3
		C2312.5,1935.7,2314.2,1935.8,2315.9,1937.5z M2377.1,1957.8l15.3,15.3c1.7,1.7,1.7,3.4,0,5.1l-35.6,35.7c-1.7,1.7-3.4,1.7-5.1,0
		l-15.3-15.3c-1.7-1.7-1.7-3.4,0-5.1l35.6-35.6C2373.7,1956.1,2375.4,1956.1,2377.1,1957.8z M2397.4,2019l15.3,15.3
		c1.7,1.7,1.7,3.4,0,5.1l-15.3,15.3c-1.7,1.7-3.4,1.7-5.1,0l-15.3-15.3c-1.7-1.7-1.7-3.4,0-5.1l15.3-15.3
		C2394,2017.2,2395.7,2017.3,2397.4,2019z M2356.7,1896.7l15.3,15.3c1.7,1.7,1.7,3.4,0,5.1l-15.3,15.3c-1.7,1.7-3.4,1.7-5.1,0
		l-15.3-15.3c-1.7-1.7-1.7-3.4,0-5.1l15.3-15.3C2353.3,1895,2355,1895,2356.7,1896.7z M2417.8,1917.1l15.3,15.3
		c1.7,1.7,1.7,3.4,0,5.1l-15.3,15.3c-1.7,1.7-3.4,1.7-5.1,0l-15.3-15.3c-1.7-1.7-1.7-3.4,0-5.1l15.3-15.3
		C2414.4,1915.4,2416.1,1915.4,2417.8,1917.1z M2397.4,1855.9l15.3,15.3c1.7,1.7,1.7,3.4,0,5.1l-15.3,15.3c-1.7,1.7-3.4,1.7-5.1,0
		l-15.3-15.3c-1.7-1.7-1.7-3.4,0-5.1l15.3-15.3C2394,1854.2,2395.8,1854.3,2397.4,1855.9z M2458.6,1876.3l15.3,15.3
		c1.7,1.7,1.7,3.4,0,5.1l-15.3,15.3c-1.7,1.7-3.4,1.7-5.1,0l-15.3-15.3c-1.7-1.7-1.7-3.4,0-5.1l15.3-15.3
		C2455.2,1874.6,2456.9,1874.6,2458.6,1876.3z M2438.2,1815.2l15.3,15.3c1.7,1.7,1.7,3.4,0,5.1l-15.3,15.3c-1.7,1.7-3.4,1.7-5.1,0
		l-15.3-15.3c-1.7-1.7-1.7-3.4,0-5.1l15.3-15.3C2434.8,1813.5,2436.5,1813.5,2438.2,1815.2z M2499.3,1835.6l15.3,15.3
		c1.7,1.7,1.7,3.4,0,5.1l-15.3,15.3c-1.7,1.7-3.4,1.7-5.1,0l-15.3-15.3c-1.7-1.7-1.7-3.4,0-5.1l15.3-15.3
		C2495.9,1833.9,2497.6,1833.9,2499.3,1835.6z M2478.9,1774.4l15.3,15.3c1.7,1.7,1.7,3.4,0,5.1l-15.3,15.3c-1.7,1.7-3.4,1.7-5.1,0
		l-15.3-15.3c-1.7-1.7-1.7-3.4,0-5.1l15.3-15.3C2475.5,1772.8,2477.3,1772.8,2478.9,1774.4z M2601.2,1815.2l15.3,15.3
		c1.7,1.7,1.7,3.4,0,5.1l-15.3,15.3c-1.7,1.7-3.4,1.7-5.1,0l-15.3-15.3c-1.7-1.7-1.7-3.4,0-5.1l15.3-15.3
		C2597.8,1813.5,2599.5,1813.5,2601.2,1815.2z"/>
	<path fill="none" stroke="#010202" stroke-width="14.5935" stroke-linecap="round" stroke-miterlimit="10" d="M2280.8,1837.3
		c11.7-11.7,11.7-30.6,0-42.3l-3.7-3.7c-11.7-11.7-11.7-30.6,0-42.3c11.7-11.7,30.6-11.7,42.2,0l69.3,69.3"/>
	<path fill="none" stroke="#010202" stroke-width="14.5935" stroke-linecap="round" stroke-miterlimit="10" d="M2651,1821.3
		c5.7,5.7,5.7,14.8,0,20.5l-244.4,244.4c-5.7,5.7-14.8,5.7-20.5,0L2264,1964.1c-5.7-5.7-5.7-14.8,0-20.5l244.4-244.4
		c5.7-5.7,14.8-5.7,20.5,0L2651,1821.3z"/>
	<path fill="none" stroke="#010202" stroke-width="14.5935" stroke-linecap="round" stroke-miterlimit="10" d="M2519.7,1733.7l56,56
		c1.7,1.7,1.7,3.4,0,5.1l-35.7,35.7c-1.7,1.7-3.4,1.7-5.1,0l-15.3-15.3c-1.7-1.7-1.7-3.4,0-5.1l17.8-17.8l-38.2-38.2
		c-1.7-1.7-1.7-3.4,0-5.1l15.3-15.3C2516.3,1732,2518,1732,2519.7,1733.7z"/>
	
		<rect x="2033.7" y="946" transform="matrix(-0.7071 0.7071 -0.7071 -0.7071 4234.1699 246.1326)" fill="none" stroke="#010202" stroke-width="14.5935" stroke-linecap="round" stroke-miterlimit="10" width="64.8" height="108"/>
	
		<rect x="2077.1" y="816.2" transform="matrix(-0.7071 0.7071 -0.7071 -0.7071 4241.8315 54.9605)" fill="none" stroke="#010202" stroke-width="14.5935" stroke-linecap="round" stroke-miterlimit="10" width="64.8" height="179.5"/>
	
		<rect x="2125.8" y="689.3" transform="matrix(-0.7071 0.7071 -0.7071 -0.7071 4258.0869 -140.8277)" fill="none" stroke="#010202" stroke-width="14.5935" stroke-linecap="round" stroke-miterlimit="10" width="64.8" height="244.3"/>
	
		<rect x="2174.5" y="558.8" transform="matrix(-0.7071 0.7071 -0.7071 -0.7071 4268.9609 -349.6116)" fill="none" stroke="#010202" stroke-width="14.5935" stroke-linecap="round" stroke-miterlimit="10" width="64.8" height="301"/>
	
		<rect x="335.8" y="1228.4" transform="matrix(0.7071 -0.7071 0.7071 0.7071 -791.4506 625.8845)" fill="none" stroke="#010202" stroke-width="14.5935" stroke-linecap="round" stroke-miterlimit="10" width="47.9" height="79.8"/>
	
		<rect x="266.4" y="1234" transform="matrix(0.7071 -0.7071 0.7071 0.7071 -834.3944 586.1815)" fill="none" stroke="#010202" stroke-width="14.5935" stroke-linecap="round" stroke-miterlimit="10" width="47.9" height="132.7"/>
	
		<rect x="196.6" y="1246" transform="matrix(0.7071 -0.7071 0.7071 0.7071 -880.2784 547.3473)" fill="none" stroke="#010202" stroke-width="14.5935" stroke-linecap="round" stroke-miterlimit="10" width="47.9" height="180.5"/>
	
		<rect x="121.2" y="1261" transform="matrix(0.7071 -0.7071 0.7071 0.7071 -927.7765 504.5251)" fill="none" stroke="#010202" stroke-width="14.5935" stroke-linecap="round" stroke-miterlimit="10" width="47.9" height="222.4"/>
	
		<path fill="none" stroke="#010202" stroke-width="14.5935" stroke-linecap="round" stroke-linejoin="round" stroke-miterlimit="10" d="
		M1173.6,1692.9L1013,1853.5c-12,12-12,31.6,0,43.6l185.3,185.3c12,12,31.6,12,43.6,0l191.5-191.5c12-12,12-31.6,0-43.6
		l-141.9-141.9L1173.6,1692.9z"/>
	<path fill="none" stroke="#010202" stroke-width="14.5935" stroke-linecap="round" stroke-miterlimit="10" d="M1408.9,1913.8
		l-61.4-61.4c-12-12-31.6-12-43.6,0l-100.5,100.5c-12,12-12,31.6,0,43.6l61.4,61.4"/>
	
		<path fill="none" stroke="#010202" stroke-width="14.5935" stroke-linecap="round" stroke-linejoin="round" stroke-miterlimit="10" d="
		M1150.6,1716.7l76.4,76.4c6.9,6.9,6.9,18,0,24.9l-87.7,87.7c-6.9,6.9-18,6.9-24.9,0l-76.4-76.4"/>
	
		<path fill="none" stroke="#010202" stroke-width="14.5935" stroke-linecap="round" stroke-linejoin="round" stroke-miterlimit="10" d="
		M1083.3,1783.7l-45.4,45.4l76.4,76.4c6.9,6.9,18,6.9,24.9,0l33-33L1083.3,1783.7z"/>
	<path fill="none" stroke="#010202" stroke-width="14.5935" stroke-linecap="round" stroke-miterlimit="10" d="M2286.3,1502.1
		c9.8,9.8,17.2,21,22.3,33.8c5.1,12.7,7.6,25.5,7.6,38.4c0,12.9-2.5,25.7-7.6,38.5c-5.1,12.7-12.5,24-22.3,33.7
		c-9.8,9.8-21,17.2-33.7,22.3c-12.7,5.1-25.5,7.6-38.5,7.6c-12.9,0-25.7-2.5-38.4-7.6c-12.7-5.1-24-12.5-33.8-22.3
		c-11.4-11.4-19.6-24.7-24.7-39.8c-5-15.1-6.4-30.7-4.1-46.7c0.7-4.7,2.9-8.5,6.6-11.3c3.7-2.9,7.9-3.9,12.6-3.2
		c4.6,0.6,8.4,2.8,11.2,6.6c2.8,3.8,3.9,8,3.3,12.6c-1.5,10.8-0.6,21.2,2.8,31.2c3.3,10,8.8,18.9,16.4,26.5
		c6.5,6.5,14,11.5,22.5,14.9c8.5,3.4,17,5.1,25.7,5.1c8.6,0,17.2-1.7,25.7-5.1c8.4-3.4,15.9-8.3,22.5-14.8
		c6.5-6.5,11.5-14,14.8-22.5c3.4-8.5,5.1-17,5.1-25.7c0-8.6-1.7-17.2-5.1-25.6c-3.4-8.5-8.3-16-14.9-22.5
		c-7.6-7.6-16.4-13.1-26.5-16.4c-10-3.4-20.5-4.3-31.3-2.8c-4.6,0.6-8.8-0.5-12.6-3.3c-3.8-2.8-6-6.5-6.6-11.2
		c-0.7-4.6,0.3-8.8,3.2-12.6c2.9-3.8,6.6-5.9,11.3-6.6c16-2.3,31.6-1,46.7,4.1C2261.6,1482.5,2274.9,1490.7,2286.3,1502.1z
		 M2154,1490l60.2,60.2c3.3,3.3,4.9,7.3,4.9,12c0,4.8-1.6,8.8-4.9,12c-3.3,3.3-7.3,4.9-12,4.9s-8.7-1.6-12-4.9l-60.2-60.2
		c-3.3-3.3-4.9-7.2-4.9-12c0-4.8,1.6-8.8,4.9-12c3.3-3.3,7.3-4.9,12-4.9C2146.7,1485.2,2150.7,1486.8,2154,1490z"/>
	<path fill="none" stroke="#010202" stroke-width="14.5935" stroke-linecap="round" stroke-miterlimit="10" d="M281.7,341.1
		c13.1,13.1,23.1,28.2,29.9,45.3c6.8,17.1,10.2,34.3,10.2,51.6c0,17.3-3.4,34.5-10.2,51.6c-6.8,17-16.8,32.1-29.9,45.2
		c-13.1,13.1-28.2,23.1-45.3,29.9c-17.1,6.8-34.3,10.2-51.6,10.2c-17.3,0-34.5-3.4-51.6-10.2c-17.1-6.8-32.2-16.8-45.3-29.9
		c-15.3-15.3-26.3-33.1-33.1-53.4c-6.8-20.3-8.6-41.2-5.5-62.6c0.9-6.3,3.9-11.4,8.9-15.2c5-3.8,10.6-5.2,16.9-4.2
		c6.2,0.8,11.2,3.8,15,8.8c3.8,5.1,5.2,10.7,4.4,16.9c-2,14.5-0.8,28.4,3.7,41.9c4.5,13.5,11.8,25.3,22,35.5
		c8.7,8.7,18.8,15.4,30.2,19.9c11.3,4.5,22.8,6.8,34.4,6.8c11.6,0,23.1-2.3,34.4-6.8c11.3-4.5,21.4-11.2,30.1-19.9
		c8.7-8.7,15.4-18.8,19.9-30.1c4.5-11.3,6.8-22.8,6.8-34.4c0-11.6-2.3-23.1-6.8-34.4c-4.5-11.4-11.2-21.4-19.9-30.2
		c-10.2-10.2-22-17.5-35.5-22c-13.5-4.5-27.5-5.7-41.9-3.7c-6.2,0.8-11.9-0.7-16.9-4.4c-5-3.8-8-8.8-8.8-15
		c-1-6.2,0.4-11.9,4.3-16.9c3.9-5,8.9-8,15.1-8.8c21.4-3.1,42.3-1.3,62.6,5.5C248.6,314.7,266.4,325.8,281.7,341.1z M104.1,324.9
		l80.7,80.7c4.4,4.4,6.6,9.8,6.6,16.2c0,6.4-2.2,11.8-6.5,16.1c-4.4,4.4-9.8,6.6-16.1,6.6c-6.4,0-11.7-2.2-16.1-6.6l-80.7-80.7
		c-4.4-4.4-6.6-9.7-6.6-16.1c0-6.4,2.2-11.8,6.6-16.1c4.4-4.4,9.7-6.6,16.1-6.6C94.4,318.4,99.7,320.6,104.1,324.9z"/>
	
		<path fill="none" stroke="#010202" stroke-width="14.5935" stroke-linecap="round" stroke-linejoin="round" stroke-miterlimit="10" d="
		M689.5,1189.8c-17.5-31.7-51.2-53.3-90-53.3"/>
	
		<path fill="none" stroke="#010202" stroke-width="14.5935" stroke-linecap="round" stroke-linejoin="round" stroke-miterlimit="10" d="
		M702.1,1239.2c0-9.7-1.4-19.2-3.9-28.1"/>
	
		<path fill="none" stroke="#010202" stroke-width="14.5935" stroke-linecap="round" stroke-linejoin="round" stroke-miterlimit="10" d="
		M678.3,1347.6c8.2,8.2,41.3,25.3,49.5,17.1c8.2-8.2-11.8-38.5-20-46.6l0,0c16.1-22.1,25.6-49.4,25.6-78.9c0-74-60-134-134-134
		c-74,0-134,60-134,134c0,74,60,134,134,134C629,1373.3,656.2,1363.7,678.3,1347.6L678.3,1347.6z"/>
	<path fill="none" stroke="#010202" stroke-width="14.5935" stroke-linecap="round" stroke-miterlimit="10" d="M2233.8,115.5
		l73.3,73.3c5.4,5.4,5.4,14,0,19.4l-125,125c-5.4,5.4-14,5.4-19.4,0l-125-125c-5.4-5.4-5.4-14,0-19.4l96.3-96.3"/>
	<path fill="none" stroke="#010202" stroke-width="14.5935" stroke-linecap="round" stroke-miterlimit="10" d="M2206.4,37.6l0,182.4
		c0,3.1-1,5.7-3.1,7.8c-2.1,2.1-4.7,3.2-7.8,3.2l-82.4,0c-3.1,0-5.7-1.1-7.8-3.2c-2.1-2.1-3.2-4.7-3.2-7.7v-21.1
		c0-3.1,1.1-5.6,3.2-7.8c2.1-2.1,4.7-3.2,7.8-3.2l50.4,0l0-150.4c0-3.1,1.1-5.6,3.2-7.7c2.1-2.1,4.7-3.2,7.7-3.2l21.1,0
		c3.1,0,5.6,1.1,7.8,3.2C2205.4,31.9,2206.4,34.5,2206.4,37.6z"/>
	<path fill="none" stroke="#010202" stroke-width="14.5935" stroke-linecap="round" stroke-miterlimit="10" d="M2440.9,1061.6
		l107.5,107.5c7.8,7.8,7.8,20.6,0,28.4l-183.2,183.2c-7.8,7.8-20.6,7.8-28.4,0l-183.2-183.2c-7.8-7.8-7.8-20.6,0-28.4l141.2-141.2"
		/>
	<polygon fill="none" stroke="#010202" stroke-width="14.5935" stroke-linecap="round" stroke-miterlimit="10" points="
		2331.4,983.5 2331.4,1194.8 2369.2,1243.7 2407,1194.8 2407,983.5 	"/>
	<path fill="none" stroke="#010202" stroke-width="14.5935" stroke-linecap="round" stroke-miterlimit="10" d="M2407,949.2
		c0-10.1-8.2-18.3-18.3-18.3l-38.9,0c-10.1,0-18.3,8.2-18.3,18.3L2407,949.2z"/>
	
		<line fill="none" stroke="#010202" stroke-width="14.5935" stroke-linecap="round" stroke-miterlimit="10" x1="2369.8" y1="1024.7" x2="2369.8" y2="1174.2"/>
	<polygon fill="#0B0C0C" points="2369.2,1243.7 2352.4,1221.9 2369.8,1207.2 2386.1,1221.9 	"/>
	
		<line fill="none" stroke="#010202" stroke-width="14.5935" stroke-linecap="round" stroke-miterlimit="10" x1="2213.6" y1="1192.4" x2="2288.2" y2="1117.8"/>
	
		<line fill="none" stroke="#010202" stroke-width="14.5935" stroke-linecap="round" stroke-miterlimit="10" x1="2262.4" y1="1233.6" x2="2286.1" y2="1209.9"/>
	
		<line fill="none" stroke="#010202" stroke-width="14.5935" stroke-linecap="round" stroke-miterlimit="10" x1="2307.1" y1="1278.3" x2="2320.4" y2="1264.9"/>
	
		<line fill="none" stroke="#010202" stroke-width="14.5935" stroke-linecap="round" stroke-miterlimit="10" x1="2441.2" y1="1144.2" x2="2447.5" y2="1137.9"/>
	
		<line fill="none" stroke="#010202" stroke-width="14.5935" stroke-linecap="round" stroke-miterlimit="10" x1="2462.1" y1="1208.5" x2="2491" y2="1179.7"/>
	
		<line fill="none" stroke="#010202" stroke-width="14.5935" stroke-linecap="round" stroke-miterlimit="10" x1="2349.8" y1="1320.9" x2="2430.4" y2="1240.3"/>
	<path fill="none" stroke="#010202" stroke-width="14.5935" stroke-linecap="round" stroke-miterlimit="10" d="M1607,1175.1
		c0,0-71-59-103.8-68.1c-32.9-9-61.1-2.9-84.5,18.4c-2.7,41.4-18.6,76.5-47.6,105.6c-29,29-64.2,44.9-105.6,47.6
		c-21.3,23.4-27.4,51.6-18.3,84.5c9,32.9,68.1,103.8,68.1,103.8C1395.1,1467,1607,1252.4,1607,1175.1z M1254.2,990.4
		c-34.2,0-63.4,12.1-87.6,36.3c-24.2,24.2-36.2,53.3-36.2,87.5c0,34.2,12,63.4,36.2,87.6c24.2,24.2,53.4,36.3,87.6,36.2
		c34.2,0,63.3-12.1,87.5-36.2c24.2-24.2,36.3-53.4,36.3-87.6c0-34.2-12.1-63.4-36.3-87.5C1317.6,1002.5,1288.4,990.4,1254.2,990.4z"
		/>
	<path fill="none" stroke="#010202" stroke-width="14.5935" stroke-linecap="round" stroke-miterlimit="10" d="M2650.6,1989.7
		c-10.9-5.5-18.3-14-22.1-25.6c-3.8-11.6-3-22.8,2.5-33.7c5.5-10.9,14-18.3,25.6-22.1c11.5-3.8,22.8-3,33.7,2.5
		c10.9,5.5,18.3,14,22.1,25.6c3.8,11.6,3,22.8-2.5,33.7c-0.5,1-1.3,2.3-2.4,4l33.2,44.6c11.1-3.3,21.9-2.3,32.2,2.9
		c10.9,5.5,18.3,14,22.1,25.6c3.8,11.5,3,22.8-2.5,33.7c-5.5,10.9-14,18.3-25.6,22.1c-11.6,3.8-22.8,3-33.7-2.5
		c-10.4-5.2-17.5-13.3-21.5-24.1l-55.6-0.1c-0.7,1.9-1.4,3.3-1.8,4.3c-5.5,10.9-14,18.3-25.6,22.1c-11.6,3.8-22.8,3-33.7-2.5
		c-10.9-5.5-18.3-14-22.1-25.6c-3.8-11.6-3-22.8,2.5-33.7c5.5-10.9,14-18.3,25.6-22.1c11.5-3.8,22.8-3,33.7,2.5
		c10.4,5.2,17.5,13.2,21.6,24.1l55.6,0.1c0.8-1.9,1.4-3.3,1.9-4.3s1.3-2.4,2.4-4.1l-33.2-44.5
		C2671.7,1995.8,2661,1994.9,2650.6,1989.7z"/>
	<path fill="none" stroke="#010202" stroke-width="14.5935" stroke-linecap="round" stroke-miterlimit="10" d="M1968.3,718.9
		l34.3,34.3c2.9,2.9,4.3,6.3,4.3,10.3c0,4-1.4,7.4-4.3,10.3l-157.8,157.8c-2.9,2.9-6.3,4.3-10.3,4.3c-4,0-7.4-1.4-10.3-4.3
		l-34.3-34.3c-2.8-2.8-4.3-6.3-4.3-10.3c0-4,1.4-7.4,4.3-10.3l49.9-49.9l29.1,0.1c8.2-0.1,15-3,20.6-8.6c5.6-5.6,8.4-12.4,8.6-20.6
		l0-29.2l49.7-49.8c2.9-2.9,6.3-4.3,10.3-4.3C1962,714.6,1965.5,716.1,1968.3,718.9z M1872.4,692.8c4.2,1.7,6.1,4.7,6,9l0,96.1
		c0.1,2.6-0.9,4.9-2.8,6.8c-1.9,1.9-4.2,2.9-6.9,2.8l-96.1,0c-4.3,0.1-7.3-1.9-9-6c-1.6-4-0.9-7.5,2.1-10.5l27.4-27.4l-48-48
		c-1.9-1.9-2.8-4.1-2.8-6.9c0-2.7,0.9-5,2.8-6.9l27.4-27.4c1.9-1.9,4.1-2.8,6.9-2.8c2.7,0,5,0.9,6.9,2.8l48,48l27.4-27.4
		C1864.9,691.9,1868.4,691.2,1872.4,692.8z M1953.9,791c0-2.7-0.9-5-2.8-6.9c-1.9-1.9-4.1-2.8-6.9-2.8c-2.7,0-5,0.9-6.9,2.8
		c-1.9,1.9-2.8,4.1-2.8,6.9c0,2.7,0.9,5,2.8,6.9c1.9,1.9,4.2,2.8,6.9,2.8c2.7,0,5-0.9,6.9-2.8C1953,796,1953.9,793.7,1953.9,791z
		 M1981.4,763.5c0-2.7-0.9-5-2.8-6.9c-1.9-1.9-4.1-2.8-6.9-2.8c-2.7,0-5,0.9-6.9,2.8c-1.9,1.9-2.8,4.1-2.8,6.9c0,2.7,0.9,5,2.8,6.9
		c1.8,1.9,4.1,2.8,6.9,2.8c2.7,0,5-0.9,6.8-2.8C1980.4,768.5,1981.4,766.2,1981.4,763.5z"/>
	<path fill="none" stroke="#010202" stroke-width="14.5935" stroke-linecap="round" stroke-miterlimit="10" d="M2167.1,1723
		l58.5,58.5c4.9,4.9,7.3,10.7,7.3,17.5c0,6.8-2.4,12.7-7.3,17.5l-269,269c-4.9,4.9-10.7,7.3-17.6,7.3c-6.8,0-12.7-2.4-17.5-7.3
		l-58.5-58.5c-4.8-4.8-7.3-10.7-7.3-17.5c0-6.8,2.5-12.7,7.3-17.5l85-85l49.5,0.2c13.9-0.2,25.6-5.1,35.1-14.6
		c9.5-9.5,14.4-21.2,14.6-35.1l0-49.7l84.8-84.8c4.9-4.9,10.7-7.3,17.5-7.3C2156.4,1715.7,2162.3,1718.2,2167.1,1723z
		 M2003.8,1678.4c7.1,2.9,10.5,8,10.2,15.4l0,163.7c0.1,4.5-1.5,8.4-4.8,11.7c-3.3,3.3-7.2,4.9-11.7,4.8l-163.7,0
		c-7.3,0.2-12.4-3.2-15.4-10.2c-2.7-6.8-1.5-12.8,3.6-17.9l46.8-46.8l-81.8-81.8c-3.2-3.2-4.7-7.1-4.7-11.7c0-4.6,1.6-8.6,4.7-11.7
		l46.8-46.8c3.2-3.2,7.1-4.7,11.7-4.7c4.6,0,8.5,1.6,11.7,4.7l81.8,81.8l46.8-46.8C1991,1676.9,1996.9,1675.7,2003.8,1678.4z
		 M2142.7,1845.8c0-4.6-1.6-8.6-4.8-11.7c-3.2-3.2-7-4.7-11.7-4.7c-4.6,0-8.5,1.6-11.7,4.7c-3.2,3.2-4.8,7.1-4.8,11.7
		c0,4.6,1.6,8.5,4.7,11.7c3.2,3.2,7.1,4.7,11.7,4.8c4.6,0,8.5-1.6,11.7-4.8C2141,1854.3,2142.7,1850.5,2142.7,1845.8z M2189.4,1799
		c0-4.6-1.6-8.6-4.8-11.7c-3.2-3.2-7-4.7-11.7-4.7c-4.6,0-8.5,1.6-11.7,4.8c-3.2,3.2-4.7,7-4.7,11.7c0,4.6,1.6,8.5,4.7,11.7
		c3.2,3.2,7.1,4.8,11.7,4.8s8.5-1.6,11.7-4.8C2187.8,1807.5,2189.5,1803.7,2189.4,1799z"/>
</g>
</svg>
